<svg width="23" height="22" viewBox="0 0 23 22" fill="none" xmlns="http://www.w3.org/2000/svg">
<g id="search--locate 1" clip-path="url(#clip0_7_713)">
<path id="Vector" d="M21.0302 19.6528L17.8068 16.4296C18.6683 15.3207 19.0748 13.9252 18.9435 12.5272C18.8122 11.1291 18.153 9.83372 17.1 8.9047C16.0471 7.97568 14.6797 7.48291 13.2762 7.52674C11.8727 7.57057 10.5387 8.14769 9.54575 9.1406C8.55285 10.1335 7.97572 11.4675 7.93189 12.871C7.88806 14.2745 8.38083 15.642 9.30985 16.6949C10.2389 17.7478 11.5343 18.4071 12.9323 18.5384C14.3303 18.6697 15.7259 18.2632 16.8347 17.4017L20.058 20.625L21.0302 19.6528ZM13.4677 17.1875C12.6518 17.1875 11.8543 16.9456 11.1759 16.4923C10.4976 16.0391 9.96888 15.3948 9.65667 14.6411C9.34446 13.8873 9.26277 13.0579 9.42193 12.2578C9.5811 11.4576 9.97396 10.7226 10.5509 10.1457C11.1277 9.56881 11.8628 9.17594 12.6629 9.01678C13.4631 8.85762 14.2925 8.93931 15.0462 9.25152C15.8 9.56373 16.4442 10.0924 16.8975 10.7708C17.3507 11.4491 17.5927 12.2467 17.5927 13.0625C17.5915 14.1562 17.1565 15.2047 16.3832 15.978C15.6098 16.7513 14.5613 17.1863 13.4677 17.1875Z" fill="#6E82A8"/>
<path id="Vector_2" d="M7.28027 8.25H1.78027V9.625H7.28027V8.25Z" fill="#6E82A8"/>
<path id="Vector_3" d="M12.7803 1.375H1.78027V2.75H12.7803V1.375Z" fill="#6E82A8"/>
<path id="Vector_4" d="M12.7803 4.8125H1.78027V6.1875H12.7803V4.8125Z" fill="#6E82A8"/>
</g>
<defs>
<clipPath id="clip0_7_713">
<rect width="22" height="22" fill="white" transform="translate(0.405273)"/>
</clipPath>
</defs>
</svg>
